<svg xmlns="http://www.w3.org/2000/svg" width="20" height="20" viewBox="0 0 20 20" fill="none">
  <path fill-rule="evenodd" clip-rule="evenodd" d="M1.875 7.08341C1.875 4.43705 4.0203 2.29175 6.66667 2.29175H13.3333C15.9797 2.29175 18.125 4.43705 18.125 7.08341V13.7501C18.125 16.3964 15.9797 18.5417 13.3333 18.5417H6.66667C4.0203 18.5417 1.875 16.3964 1.875 13.7501V7.08341ZM6.66667 3.54175C4.71066 3.54175 3.125 5.12741 3.125 7.08341V13.7501C3.125 15.7061 4.71066 17.2917 6.66667 17.2917H13.3333C15.2893 17.2917 16.875 15.7061 16.875 13.7501V7.08341C16.875 5.12741 15.2893 3.54175 13.3333 3.54175H6.66667Z" fill="#1D45EF"/>
  <path fill-rule="evenodd" clip-rule="evenodd" d="M17.5 7.7085H2.5V6.4585H17.5V7.7085Z" fill="#1D45EF"/>
  <path fill-rule="evenodd" clip-rule="evenodd" d="M13.75 1.04175C13.4048 1.04175 13.125 1.32157 13.125 1.66675L13.125 4.16675C13.125 4.51193 13.4048 4.79175 13.75 4.79175C14.0952 4.79175 14.375 4.51193 14.375 4.16675L14.375 1.66675C14.375 1.32157 14.0952 1.04175 13.75 1.04175Z" fill="#1D45EF"/>
  <path fill-rule="evenodd" clip-rule="evenodd" d="M6.25 1.04175C5.90482 1.04175 5.625 1.32157 5.625 1.66675L5.625 4.16675C5.625 4.51193 5.90482 4.79175 6.25 4.79175C6.59518 4.79175 6.875 4.51193 6.875 4.16675L6.875 1.66675C6.875 1.32157 6.59518 1.04175 6.25 1.04175Z" fill="#1D45EF"/>
  <path fill-rule="evenodd" clip-rule="evenodd" d="M4.79102 10.4167C4.79102 10.7619 5.07084 11.0417 5.41602 11.0417H6.24935C6.59453 11.0417 6.87435 10.7619 6.87435 10.4167C6.87435 10.0716 6.59453 9.79175 6.24935 9.79175H5.41602C5.07084 9.79175 4.79102 10.0716 4.79102 10.4167Z" fill="#1D45EF"/>
  <path fill-rule="evenodd" clip-rule="evenodd" d="M8.95703 10.4167C8.95703 10.7619 9.23685 11.0417 9.58203 11.0417H10.4154C10.7605 11.0417 11.0404 10.7619 11.0404 10.4167C11.0404 10.0716 10.7605 9.79175 10.4154 9.79175H9.58203C9.23685 9.79175 8.95703 10.0716 8.95703 10.4167Z" fill="#1D45EF"/>
  <path fill-rule="evenodd" clip-rule="evenodd" d="M13.125 10.4167C13.125 10.7619 13.4048 11.0417 13.75 11.0417H14.5833C14.9285 11.0417 15.2083 10.7619 15.2083 10.4167C15.2083 10.0716 14.9285 9.79175 14.5833 9.79175H13.75C13.4048 9.79175 13.125 10.0716 13.125 10.4167Z" fill="#1D45EF"/>
  <path fill-rule="evenodd" clip-rule="evenodd" d="M4.79102 13.75C4.79102 14.0952 5.07084 14.375 5.41602 14.375H6.24935C6.59453 14.375 6.87435 14.0952 6.87435 13.75C6.87435 13.4048 6.59453 13.125 6.24935 13.125H5.41602C5.07084 13.125 4.79102 13.4048 4.79102 13.75Z" fill="#1D45EF"/>
  <path fill-rule="evenodd" clip-rule="evenodd" d="M8.95703 13.75C8.95703 14.0952 9.23685 14.375 9.58203 14.375H10.4154C10.7605 14.375 11.0404 14.0952 11.0404 13.75C11.0404 13.4048 10.7605 13.125 10.4154 13.125H9.58203C9.23685 13.125 8.95703 13.4048 8.95703 13.75Z" fill="#1D45EF"/>
  <path fill-rule="evenodd" clip-rule="evenodd" d="M13.125 13.75C13.125 14.0952 13.4048 14.375 13.75 14.375H14.5833C14.9285 14.375 15.2083 14.0952 15.2083 13.75C15.2083 13.4048 14.9285 13.125 14.5833 13.125H13.75C13.4048 13.125 13.125 13.4048 13.125 13.75Z" fill="#1D45EF"/>
</svg>