<svg xmlns="http://www.w3.org/2000/svg" width="30" height="30" viewBox="0 0 30 30" fill="none">
  <path fill-rule="evenodd" clip-rule="evenodd" d="M14.3567 6.14984C15.2261 4.84579 16.6897 4.0625 18.2569 4.0625H18.5244C19.8762 4.0625 20.9044 5.27627 20.6822 6.60962L19.8567 11.5625H23.2005C25.3697 11.5625 26.9967 13.5471 26.5712 15.6742L25.0712 23.1741C24.7499 24.7809 23.3391 25.9375 21.7005 25.9375H7.5C5.60152 25.9375 4.0625 24.3985 4.0625 22.5V12.5C4.0625 11.9822 4.48223 11.5625 5 11.5625H9.91204C10.4345 11.5625 10.9223 11.3014 11.2121 10.8667L14.3567 6.14984ZM18.2569 5.9375C17.3166 5.9375 16.4384 6.40747 15.9168 7.1899L12.7722 11.9068C12.1347 12.8631 11.0614 13.4375 9.91204 13.4375H5.9375V22.5C5.9375 23.3629 6.63706 24.0625 7.5 24.0625H21.7005C22.4453 24.0625 23.0866 23.5368 23.2326 22.8064L24.7326 15.3064C24.926 14.3396 24.1865 13.4375 23.2005 13.4375H18.75C18.4744 13.4375 18.2128 13.3162 18.0347 13.106C17.8565 12.8957 17.78 12.6177 17.8253 12.3459L18.8327 6.30137C18.8644 6.1109 18.7175 5.9375 18.5244 5.9375H18.2569Z" fill="#0E1625"/>
  <path fill-rule="evenodd" clip-rule="evenodd" d="M9.0625 25V12.5H10.9375V25H9.0625Z" fill="#0E1625"/>
</svg>