<svg xmlns="http://www.w3.org/2000/svg" width="20" height="20" viewBox="0 0 20 20" fill="none">
  <path fill-rule="evenodd" clip-rule="evenodd" d="M9.99935 2.29175C5.74215 2.29175 2.29102 5.74289 2.29102 10.0001C2.29102 14.2573 5.74215 17.7084 9.99935 17.7084C14.2565 17.7084 17.7077 14.2573 17.7077 10.0001C17.7077 5.74289 14.2565 2.29175 9.99935 2.29175ZM1.04102 10.0001C1.04102 5.05253 5.0518 1.04175 9.99935 1.04175C14.9469 1.04175 18.9577 5.05253 18.9577 10.0001C18.9577 14.9476 14.9469 18.9584 9.99935 18.9584C5.0518 18.9584 1.04102 14.9476 1.04102 10.0001Z" fill="#1D45EF"/>
  <path fill-rule="evenodd" clip-rule="evenodd" d="M10 6.04175C10.3452 6.04175 10.625 6.32157 10.625 6.66675V9.66559L12.8467 11.1467C13.1339 11.3382 13.2115 11.7262 13.02 12.0134C12.8286 12.3006 12.4405 12.3783 12.1533 12.1868L9.83885 10.6438C9.54906 10.4506 9.375 10.1254 9.375 9.77709V6.66675C9.375 6.32157 9.65482 6.04175 10 6.04175Z" fill="#1D45EF"/>
</svg>